HIERARCHY
ROOT Hips
{
	OFFSET -3.958830 18.904000 13.208200
	CHANNELS 6 Xposition Yposition Zposition Zrotation Yrotation Xrotation 
	JOINT LHipJoint
	{
		OFFSET 0.000000 0.000000 0.000000
		CHANNELS 3 Zrotation Yrotation Xrotation
		JOINT LeftUpLeg
		{
			OFFSET 1.800000 -1.400000 0.085000
			CHANNELS 3 Zrotation Yrotation Xrotation
			JOINT LeftLeg
			{
				OFFSET 2.215000 -6.000000 0.000000
				CHANNELS 3 Zrotation Yrotation Xrotation
				JOINT LeftFoot
				{
					OFFSET 2.500000 -6.900000 0.000000
					CHANNELS 3 Zrotation Yrotation Xrotation
					JOINT LeftToeBase
					{
						OFFSET 0.200000 -0.500000 1.950000
						CHANNELS 3 Zrotation Yrotation Xrotation
						End Site
						{
							OFFSET 0.000000 0.000000 0.000000
						}
					}
				}
			}
		}
	}
	JOINT RHipJoint
	{
		OFFSET 0.000000 0.000000 0.000000
		CHANNELS 3 Zrotation Yrotation Xrotation
		JOINT RightUpLeg
		{
			OFFSET -1.800000 -1.400000 0.085000
			CHANNELS 3 Zrotation Yrotation Xrotation
			JOINT RightLeg
			{
				OFFSET -2.215000 -6.000000 0.000000
				CHANNELS 3 Zrotation Yrotation Xrotation
				JOINT RightFoot
				{
					OFFSET -2.500000 -6.900000 0.000000
					CHANNELS 3 Zrotation Yrotation Xrotation
					JOINT RightToeBase
					{
						OFFSET -0.200000 -0.500000 1.950000
						CHANNELS 3 Zrotation Yrotation Xrotation
						End Site
						{
							OFFSET 0.000000 0.000000 0.000000
						}
					}
				}
			}
		}
	}
	JOINT LowerBack
	{
		OFFSET 0.000000 0.000000 0.000000
		CHANNELS 3 Zrotation Yrotation Xrotation
		JOINT Spine
		{
			OFFSET -0.087000 1.940000 -0.288900
			CHANNELS 3 Zrotation Yrotation Xrotation
			JOINT Spine1
			{
				OFFSET 0.000000 1.950000 0.060000
				CHANNELS 3 Zrotation Yrotation Xrotation
				JOINT Neck
				{
					OFFSET 0.000000 0.000000 0.000000
					CHANNELS 3 Zrotation Yrotation Xrotation
					JOINT Neck1
					{
						OFFSET 0.000000 1.600000 0.340000
						CHANNELS 3 Zrotation Yrotation Xrotation
						JOINT Head
						{
							OFFSET 0.000000 1.667000 -0.240000
							CHANNELS 3 Zrotation Yrotation Xrotation
							End Site
							{
								OFFSET 0.000000 0.000000 0.000000
							}
						}
					}
				}
				JOINT LeftShoulder
				{
					OFFSET 0.000000 0.000000 0.000000
					CHANNELS 3 Zrotation Yrotation Xrotation
					JOINT LeftArm
					{
						OFFSET 2.700000 1.550000 -0.730000
						CHANNELS 3 Zrotation Yrotation Xrotation
						JOINT LeftForeArm
						{
							OFFSET 5.450000 0.000000 0.000000
							CHANNELS 3 Zrotation Yrotation Xrotation
							JOINT LeftHand
							{
								OFFSET 3.450000 0.000000 0.000000
								CHANNELS 3 Zrotation Yrotation Xrotation
								JOINT LeftHandIndex1
								{
									OFFSET 0.750000 0.000000 0.000000
									CHANNELS 3 Zrotation Yrotation Xrotation
									End Site
									{
										OFFSET 0.000000 0.000000 0.000000
									}
								}
							}
						}
					}
				}
				JOINT RightShoulder
				{
					OFFSET 0.000000 0.000000 0.000000
					CHANNELS 3 Zrotation Yrotation Xrotation
					JOINT RightArm
					{
						OFFSET -2.700000 1.550000 -0.730000
						CHANNELS 3 Zrotation Yrotation Xrotation
						JOINT RightForeArm
						{
							OFFSET -5.450000 0.000000 0.000000
							CHANNELS 3 Zrotation Yrotation Xrotation
							JOINT RightHand
							{
								OFFSET -3.450000 0.000000 0.000000
								CHANNELS 3 Zrotation Yrotation Xrotation
								JOINT RightHandIndex1
								{
									OFFSET -0.750000 0.000000 0.000000
									CHANNELS 3 Zrotation Yrotation Xrotation
									End Site
									{
										OFFSET 0.000000 0.000000 0.000000
									}
								}
							}
						}
					}
				}
			}
		}
	}
}
MOTION
Frames: 8
Frame Time: 0.016667
0.131540 16.726700 -1.879070 1.232987 -26.813088 12.004816 -15.140900 13.905486 2.525572 2.699700 -0.154337 -6.476017 -4.675565 6.235415 16.164247 -0.070297 4.642268 3.142292 0.085340 0.036510 -0.029350 18.412326 -10.272794 2.774863 1.975119 3.517307 -26.786182 -0.355885 -4.240975 27.068859 0.122004 -3.510780 3.170931 0.203250 0.535330 0.193100 -3.734864 -3.353228 -6.309731 14.722967 -10.108147 5.292520 -9.477487 -10.047391 4.668026 1.943813 -8.290577 -5.323930 -15.251166 14.032740 17.117045 -5.411940 13.851990 1.413010 -24.317364 1.383852 -0.849948 -52.832236 -3.535937 -1.291528 -6.327834 -1.860753 -0.659008 -4.350221 3.079271 -0.182000 0.511940 -0.312790 0.193410 20.405837 -0.177005 2.971831 57.800945 -4.911744 -11.896465 47.686849 36.764824 9.573430 2.233426 -1.955075 -0.183290 0.121870 0.032020 -0.006710 
0.127450 16.656350 -1.892520 0.903821 -27.592063 11.530351 -15.124779 14.008776 2.450386 2.814402 -0.082853 -5.854795 -3.338551 6.359354 18.812855 -0.006420 4.830435 3.065829 0.065900 0.010340 -0.048110 18.420146 -10.243182 2.871563 2.470503 3.941751 -27.540488 -1.118336 -4.322342 29.816380 0.065329 -3.800127 3.063417 0.169170 0.525230 0.190110 -3.761934 -3.489525 -6.352812 14.965136 -10.558656 6.007602 -9.406301 -10.454085 4.292099 1.891816 -8.566056 -5.684778 -16.015358 14.735544 17.858540 -4.733700 14.326890 2.301910 -24.780717 0.597725 -0.325267 -51.603329 -2.356222 -1.339657 -5.874226 0.234118 -0.644325 -4.332955 3.088003 -0.169320 0.491100 -0.305210 0.188910 20.983149 0.685933 3.133594 56.704342 -5.020950 -11.990560 47.900754 36.268630 9.475510 2.258190 -1.942111 -0.173340 0.103090 0.038800 -0.001980 
0.127290 16.565220 -1.915530 0.482180 -28.415449 11.220589 -15.101901 14.037747 2.340376 2.869061 -0.081287 -5.322430 -1.824626 6.540234 22.544163 0.067204 5.133152 2.940690 0.086920 0.029790 -0.023880 18.450740 -10.127941 3.108252 3.144797 5.045318 -29.834426 -2.223858 -4.503168 35.017318 -0.080981 -4.414494 2.830902 0.159800 0.477860 0.180040 -3.850272 -3.564118 -6.474175 15.529678 -11.196568 7.524329 -9.582063 -10.942779 3.657287 1.857891 -9.073320 -6.027116 -17.142813 15.336565 18.093934 -4.711610 14.853070 1.566020 -25.232433 -0.021851 0.210016 -49.694502 -0.747585 -1.570032 -5.687985 2.271168 -0.664898 -4.280520 3.079881 -0.128170 0.443240 -0.264550 0.189120 21.513341 1.548910 3.146563 55.185231 -4.806558 -11.862562 48.889619 35.469689 9.532952 2.285762 -1.927133 -0.160770 0.096070 0.018170 -0.008790 
0.116180 16.477930 -1.932160 0.467295 -30.568537 10.680181 -15.114066 14.012533 2.293127 2.002785 -0.273477 -5.517394 -0.312197 7.093810 29.192059 0.218517 5.855630 2.660774 0.111940 0.056670 0.008440 18.460130 -9.924997 3.404126 3.478102 6.492148 -32.440592 -3.781632 -4.442123 40.997640 -0.276881 -5.212998 2.541405 0.157030 0.423250 0.164170 -3.873542 -3.705104 -6.686648 14.875131 -11.289907 9.732663 -8.953494 -10.843742 2.557010 1.588950 -9.725951 -6.384683 -18.629277 16.091118 17.953817 -4.963850 15.517580 -0.023290 -25.830510 -0.401934 0.712993 -47.494713 1.060982 -1.813710 -5.613660 3.878497 -0.719367 -4.223198 3.054417 -0.075150 0.388740 -0.216220 0.184080 22.755831 2.545870 3.095466 53.154072 -4.655591 -11.789756 48.183235 34.980664 9.255728 2.305809 -1.880135 -0.153430 0.103040 0.000710 -0.022480 
0.116320 16.408800 -1.962250 0.643768 -31.820991 9.666720 -15.127590 13.941400 2.386470 1.182196 -1.175738 -7.030368 1.202823 8.028597 39.026453 0.528395 7.215959 2.161391 0.128480 0.070610 0.043470 18.459917 -9.795428 3.517300 3.441135 7.101290 -33.401316 -4.308572 -4.621721 44.440461 -0.418851 -5.725469 2.353754 0.138790 0.359840 0.160280 -3.886634 -3.804239 -6.901486 14.274801 -11.427558 12.035228 -8.579855 -10.797636 2.049217 1.392930 -10.219311 -6.875400 -19.996499 16.526481 18.717171 -5.631950 16.036990 -1.109370 -25.814065 -1.038294 1.254109 -44.812238 1.819003 -1.830208 -6.289244 4.466698 -0.828101 -4.160058 3.053769 -0.034530 0.336310 -0.166460 0.168610 23.213993 3.639978 3.205270 51.906994 -4.130675 -11.758684 47.986011 35.055069 9.311956 2.336018 -1.849032 -0.130430 0.088980 -0.012600 -0.034610 
0.117090 16.346940 -1.997880 1.007252 -33.305580 8.315829 -15.167486 13.763868 2.641551 0.721822 -2.528389 -8.864108 1.658486 9.843297 50.087928 0.963753 9.118895 1.515517 0.171890 0.114550 0.076940 18.442211 -9.662120 3.520252 3.556287 7.412350 -33.440635 -4.959768 -4.593865 46.833906 -0.544202 -6.068022 2.235165 0.147420 0.296940 0.143360 -3.857341 -3.849004 -7.168846 13.039654 -11.042874 14.510011 -7.488904 -10.262217 1.584592 0.774982 -10.759145 -7.273651 -21.686825 16.539878 20.056886 -5.317480 15.242320 -2.868970 -25.186021 -1.169795 1.627708 -42.320857 2.037828 -1.762369 -5.493627 4.062646 -0.808022 -4.084784 3.033560 0.029230 0.266640 -0.112070 0.167200 23.906339 4.510686 3.173776 50.298741 -3.459159 -11.552541 47.067825 34.944256 9.149839 2.345746 -1.799536 -0.117140 0.104820 -0.029480 -0.044580 
0.112820 16.313960 -2.033640 1.477287 -34.880440 6.913155 -15.213487 13.530139 2.990844 0.316089 -4.090086 -10.686218 1.878986 12.092702 60.998211 1.468445 11.128566 0.886557 0.213510 0.149010 0.120230 18.420836 -9.558614 3.458747 4.275972 7.439853 -33.045812 -7.180391 -3.635775 48.146498 -0.627373 -6.208794 2.175242 0.150750 0.227140 0.145770 -3.816682 -3.815275 -7.453328 11.585212 -10.567722 17.136292 -6.800890 -9.667471 1.232691 0.335573 -10.994953 -7.669579 -22.671484 16.270910 21.457240 -5.569440 14.538900 -4.256770 -25.347379 -1.771688 2.090377 -37.668129 2.486055 -1.637945 -4.302127 2.542088 -0.748061 -4.006092 3.048021 0.074870 0.209760 -0.063760 0.155370 25.023659 5.599157 3.333211 48.286086 -3.124344 -11.284134 48.012104 35.829893 9.840322 2.353274 -1.799888 -0.091760 0.088950 -0.046030 -0.058710 
0.123310 16.297330 -2.060470 1.822387 -35.668158 5.379393 -15.239295 13.305654 3.345769 0.075555 -5.537541 -11.961063 1.890046 14.622479 70.504774 1.954249 12.918280 0.384177 0.224250 0.143270 0.162860 18.406383 -9.536074 3.328185 4.414836 7.104035 -32.067174 -7.942149 -3.438102 48.844317 -0.685971 -6.309870 2.135185 0.127250 0.157980 0.146620 -3.795310 -3.684470 -7.703351 10.714623 -9.888605 19.505647 -6.661784 -8.808267 1.667694 0.329928 -10.785395 -8.403910 -22.737603 15.391013 23.655561 -6.864730 14.030130 -5.073940 -25.180488 -3.364152 2.699873 -32.201488 2.071940 -1.249802 -4.931752 1.206450 -0.761222 -3.927832 3.048832 0.119530 0.162950 -0.018250 0.134740 24.880405 7.381238 4.122402 47.531055 -2.831777 -11.581147 50.045955 38.833331 11.562224 2.367864 -1.808334 -0.075560 0.067950 -0.058160 -0.079950 
